HIERARCHY
ROOT Hips
{
	OFFSET 0.00000 0.00000 0.00000
	CHANNELS 6 Xposition Yposition Zposition Zrotation Yrotation Xrotation 
	JOINT LHipJoint
	{
		OFFSET 0 0 0
		CHANNELS 3 Zrotation Yrotation Xrotation
		JOINT LeftUpLeg
		{
			OFFSET 1.84395 -1.68683 0.74144
			CHANNELS 3 Zrotation Yrotation Xrotation
			JOINT LeftLeg
			{
				OFFSET 2.27037 -6.23779 0.00000
				CHANNELS 3 Zrotation Yrotation Xrotation
				JOINT LeftFoot
				{
					OFFSET 2.56918 -7.05877 0.00000
					CHANNELS 3 Zrotation Yrotation Xrotation
					JOINT LeftToeBase
					{
						OFFSET 0.22276 -0.61202 1.71784
						CHANNELS 3 Zrotation Yrotation Xrotation
						End Site
						{
							OFFSET 0.00000 -0.00000 0.91613
						}
					}
				}
			}
		}
	}
	JOINT RHipJoint
	{
		OFFSET 0 0 0
		CHANNELS 3 Zrotation Yrotation Xrotation
		JOINT RightUpLeg
		{
			OFFSET -1.76833 -1.68684 0.74144
			CHANNELS 3 Zrotation Yrotation Xrotation
			JOINT RightLeg
			{
				OFFSET -2.49360 -6.85110 0.00000
				CHANNELS 3 Zrotation Yrotation Xrotation
				JOINT RightFoot
				{
					OFFSET -2.55538 -7.02085 0.00000
					CHANNELS 3 Zrotation Yrotation Xrotation
					JOINT RightToeBase
					{
						OFFSET -0.21516 -0.59115 1.68050
						CHANNELS 3 Zrotation Yrotation Xrotation
						End Site
						{
							OFFSET -0.00000 -0.00000 0.89604
						}
					}
				}
			}
		}
	}
	JOINT LowerBack
	{
		OFFSET 0 0 0
		CHANNELS 3 Zrotation Yrotation Xrotation
		JOINT Spine
		{
			OFFSET 0.06382 1.72312 -0.19613
			CHANNELS 3 Zrotation Yrotation Xrotation
			JOINT Spine1
			{
				OFFSET -0.00055 1.73507 0.23859
				CHANNELS 3 Zrotation Yrotation Xrotation
				JOINT Neck
				{
					OFFSET 0 0 0
					CHANNELS 3 Zrotation Yrotation Xrotation
					JOINT Neck1
					{
						OFFSET 0.03638 1.65562 0.09633
						CHANNELS 3 Zrotation Yrotation Xrotation
						JOINT Head
						{
							OFFSET 0.06388 1.62807 -0.32386
							CHANNELS 3 Zrotation Yrotation Xrotation
							End Site
							{
								OFFSET 0.00995 1.67644 -0.12021
							}
						}
					}
				}
				JOINT LeftShoulder
				{
					OFFSET 0 0 0
					CHANNELS 3 Zrotation Yrotation Xrotation
					JOINT LeftArm
					{
						OFFSET 3.09648 1.42991 0.28122
						CHANNELS 3 Zrotation Yrotation Xrotation
						JOINT LeftForeArm
						{
							OFFSET 5.11878 -0.00000 -0.00000
							CHANNELS 3 Zrotation Yrotation Xrotation
							JOINT LeftHand
							{
								OFFSET 3.59971 -0.00000 0.00000
								CHANNELS 3 Zrotation Yrotation Xrotation
								JOINT LeftFingerBase
								{
									OFFSET 0 0 0
									CHANNELS 3 Zrotation Yrotation Xrotation
									JOINT LeftHandIndex1
									{
										OFFSET 0.62877 -0.00000 0.00000
										CHANNELS 3 Zrotation Yrotation Xrotation
										End Site
										{
											OFFSET 0.50693 -0.00000 0.00000
										}
									}
								}
								JOINT LThumb
								{
									OFFSET 0 0 0
									CHANNELS 3 Zrotation Yrotation Xrotation
									End Site
									{
										OFFSET 0.51467 -0.00000 0.51467
									}
								}
							}
						}
					}
				}
				JOINT RightShoulder
				{
					OFFSET 0 0 0
					CHANNELS 3 Zrotation Yrotation Xrotation
					JOINT RightArm
					{
						OFFSET -3.33565 1.14597 0.05047
						CHANNELS 3 Zrotation Yrotation Xrotation
						JOINT RightForeArm
						{
							OFFSET -5.49020 -0.00000 0.00000
							CHANNELS 3 Zrotation Yrotation Xrotation
							JOINT RightHand
							{
								OFFSET -3.20659 -0.00000 -0.00000
								CHANNELS 3 Zrotation Yrotation Xrotation
								JOINT RightFingerBase
								{
									OFFSET 0 0 0
									CHANNELS 3 Zrotation Yrotation Xrotation
									JOINT RightHandIndex1
									{
										OFFSET -0.69188 -0.00000 0.00000
										CHANNELS 3 Zrotation Yrotation Xrotation
										End Site
										{
											OFFSET -0.55781 -0.00000 0.00000
										}
									}
								}
								JOINT RThumb
								{
									OFFSET 0 0 0
									CHANNELS 3 Zrotation Yrotation Xrotation
									End Site
									{
										OFFSET -0.56633 -0.00000 0.56633
									}
								}
							}
						}
					}
				}
			}
		}
	}
}
MOTION
Frames: 13
Frame Time: .0083333
-0.5075 17.5123 7.4717 -7.4141 -6.5445 5.5050 0.0000 0.0000 0.0000 -22.2388 -32.9774 24.6612 0.0444 -1.3602 -3.7405 -4.2048 41.0299 -43.1139 0.7973 5.6995 15.9149 0.0000 0.0000 0.0000 27.0352 21.0470 7.5943 -0.0123 -0.7161 1.9680 0.0904 -12.0425 -15.8578 -0.0107 0.6692 -1.8390 5.3842 3.3321 1.4094 0.3100 4.8484 -8.0935 -3.0936 1.9974 -8.9315 3.4585 0.2521 -14.1487 0.7033 -0.8692 33.2270 -0.4591 0.1638 13.5859 -0.0000 0.0000 0.0000 -85.0788 10.5163 56.1689 124.8426 -54.8750 -89.6553 -0.0000 0.0000 -55.7362 39.4080 -2.6252 -2.1552 -7.1250 0.0000 -0.0000 9.7337 26.5561 -4.4149 -0.0000 0.0000 0.0000 81.9257 21.5019 77.7225 -98.2664 59.7402 -67.1526 0.0000 -0.0000 -0.7006 23.6374 -56.9695 -20.1497 7.1250 -0.0000 -0.0000 93.6317 -64.3795 -65.4470
-0.5073 17.5143 7.4713 -7.3350 -6.3558 5.5754 0.0000 0.0000 0.0000 -22.2322 -33.0900 24.4896 0.0434 -1.3442 -3.6963 -4.2848 41.0559 -42.8363 0.7658 5.5883 15.5944 0.0000 0.0000 0.0000 26.9024 21.0300 7.4925 -0.0123 -0.7155 1.9662 0.0939 -12.1460 -15.9639 -0.0088 0.6051 -1.6628 5.2686 3.2677 1.4782 0.3341 4.7643 -8.1555 -3.0057 1.9601 -9.0584 3.3263 0.2916 -14.1986 0.6441 -0.7521 33.2481 -0.4414 0.1910 13.6068 -0.0000 0.0000 0.0000 -85.2838 10.8996 55.7630 124.2202 -55.0763 -89.1456 -0.0000 0.0000 -55.4013 40.2299 -2.2676 -1.9171 -7.1250 0.0000 -0.0000 10.4012 26.9720 -4.6236 -0.0000 0.0000 0.0000 81.7616 20.4330 78.2460 -99.2123 59.6769 -67.9694 0.0000 -0.0000 -2.5754 21.3586 -56.6157 -18.0838 7.1250 -0.0000 -0.0000 91.8720 -65.0473 -64.3543
-0.5076 17.5168 7.4722 -7.2710 -6.1712 5.6113 0.0000 0.0000 0.0000 -22.2626 -33.1938 24.4180 0.0432 -1.3413 -3.6885 -4.3671 41.0987 -42.5834 0.7263 5.4454 15.1833 0.0000 0.0000 0.0000 26.8060 20.9760 7.4450 -0.0120 -0.7075 1.9442 0.0974 -12.2342 -16.0487 -0.0063 0.5137 -1.4115 5.2206 3.1809 1.4805 0.3455 4.6460 -8.1591 -2.9583 1.9053 -9.0781 3.4791 0.3787 -14.1965 0.3412 -0.5622 33.2695 -0.5588 0.2525 13.6160 0.0000 -0.0000 0.0000 -85.4389 11.2130 55.3910 123.6132 -55.2676 -88.6473 -0.0000 0.0000 -55.4017 41.1946 -1.9911 -1.7419 -7.1250 0.0000 -0.0000 11.1682 27.2832 -4.8930 0.0000 -0.0000 0.0000 81.8674 19.5870 78.8256 -99.7378 59.6386 -68.4229 0.0000 -0.0000 -2.7101 18.1563 -55.7674 -15.1697 7.1250 -0.0000 -0.0000 88.5953 -65.9272 -61.9363
-0.5094 17.5184 7.4729 -7.2721 -6.0686 5.6180 0.0000 0.0000 0.0000 -22.2873 -33.2986 24.4982 0.0447 -1.3644 -3.7521 -4.3988 41.1494 -42.5641 0.7247 5.4395 15.1663 0.0000 0.0000 0.0000 26.8374 21.0201 7.4896 -0.0117 -0.6984 1.9192 0.1098 -12.3792 -16.0903 -0.0076 0.5624 -1.5454 5.2476 3.0980 1.5377 0.3553 4.5410 -8.1620 -2.9586 1.8503 -9.1234 3.7226 0.5105 -14.2536 0.0405 -0.3380 33.3614 -0.6863 0.3419 13.6719 -0.0000 -0.0000 0.0000 -85.5226 11.5310 55.1506 122.9894 -55.4593 -88.1341 -0.0000 0.0000 -55.5711 41.9158 -1.8913 -1.6971 -7.1250 0.0000 -0.0000 11.7265 27.3798 -5.1200 -0.0000 -0.0000 0.0000 82.1160 18.9314 79.6574 -99.6933 59.6420 -68.3846 0.0000 -0.0000 -0.6035 14.3043 -54.2660 -11.6936 7.1250 -0.0000 -0.0000 83.3979 -66.8602 -57.7379
-0.5110 17.5189 7.4728 -7.3120 -6.0385 5.6322 0.0000 0.0000 0.0000 -22.2793 -33.3836 24.5902 0.0463 -1.3883 -3.8178 -4.4301 41.2296 -42.6149 0.7393 5.4930 15.3202 0.0000 0.0000 0.0000 26.9375 21.1534 7.5853 -0.0111 -0.6791 1.8662 0.1277 -12.5642 -16.1173 -0.0113 0.6873 -1.8888 5.3025 3.0216 1.5595 0.3887 4.4447 -8.1398 -2.9464 1.8008 -9.1193 3.9571 0.6514 -14.3188 -0.2075 -0.1164 33.4256 -0.7917 0.4356 13.7194 -0.0000 -0.0000 0.0000 -85.5638 11.7662 55.0804 122.4475 -55.6217 -87.6873 -0.0000 0.0000 -55.8371 42.3258 -1.9960 -1.8169 -7.1250 0.0000 -0.0000 12.0169 27.2218 -5.2978 -0.0000 -0.0000 0.0000 82.3473 18.5178 80.6834 -99.3323 59.6683 -68.0730 0.0000 0.0000 2.4385 10.2828 -52.6502 -8.2066 7.1250 -0.0000 -0.0000 77.5344 -67.7463 -53.1137
-0.5117 17.5187 7.4724 -7.3202 -6.0534 5.6791 0.0000 0.0000 0.0000 -22.2746 -33.4450 24.6030 0.0469 -1.3976 -3.8434 -4.3993 41.2195 -42.7229 0.7630 5.5781 15.5651 0.0000 0.0000 0.0000 26.9539 21.2363 7.5983 -0.0105 -0.6603 1.8146 0.1325 -12.6282 -16.1487 -0.0109 0.6735 -1.8509 5.3215 2.9606 1.5190 0.4352 4.3628 -8.1046 -2.8974 1.7636 -9.0656 4.0816 0.7629 -14.3799 -0.3930 0.0728 33.4490 -0.8580 0.5087 13.7481 -0.0000 -0.0000 0.0000 -85.6044 11.8976 55.0894 122.0700 -55.7326 -87.3756 -0.0000 0.0000 -56.4296 43.1411 -2.3025 -2.1561 -7.1250 0.0000 -0.0000 12.5724 26.7706 -5.6907 -0.0000 -0.0000 0.0000 82.5711 18.3067 81.5830 -99.0596 59.6876 -67.8376 0.0000 0.0000 5.0700 7.6174 -51.5798 -5.9816 7.1250 -0.0000 -0.0000 73.4619 -68.2837 -49.9803
-0.5119 17.5183 7.4721 -7.2752 -6.1341 5.7114 0.0000 0.0000 0.0000 -22.3693 -33.4840 24.6504 0.0473 -1.4029 -3.8581 -4.3290 41.1998 -42.9753 0.7805 5.6403 15.7442 0.0000 0.0000 0.0000 26.8742 21.2352 7.5460 -0.0103 -0.6557 1.8020 0.1220 -12.5364 -16.1578 -0.0068 0.5316 -1.4608 5.2893 2.9408 1.4926 0.4516 4.3324 -8.0825 -2.8573 1.7533 -9.0312 4.1831 0.8479 -14.3546 -0.5249 0.2162 33.4242 -0.9057 0.5656 13.7358 -0.0000 0.0000 0.0000 -85.6217 12.0133 54.9657 121.8410 -55.7991 -87.1862 -0.0000 0.0000 -57.4357 44.0870 -2.6969 -2.6095 -7.1250 0.0000 -0.0000 13.1996 26.1810 -6.1768 -0.0000 0.0000 0.0000 82.8793 18.1306 82.0533 -98.8731 59.7004 -67.6766 0.0000 0.0000 7.0484 6.2704 -50.8642 -4.8714 7.1250 -0.0000 -0.0000 70.9409 -68.4742 -47.9253
-0.5094 17.5152 7.4772 -7.1204 -6.2934 5.6738 0.0000 0.0000 0.0000 -22.8342 -33.5935 24.9881 0.0478 -1.4105 -3.8790 -4.2516 41.3175 -43.5599 0.8084 5.7380 16.0261 0.0000 0.0000 0.0000 26.6498 21.0568 7.5413 -0.0095 -0.6301 1.7315 0.1087 -12.3128 -16.0031 -0.0073 0.5528 -1.5189 5.1890 2.9636 1.4582 0.4052 4.3487 -8.0437 -2.8487 1.7694 -8.9684 4.3408 0.9332 -14.2701 -0.6100 0.3306 33.3616 -0.9489 0.6230 13.6942 -0.0000 0.0000 0.0000 -85.6639 12.1594 54.5978 121.7127 -55.8360 -87.0800 -0.0000 0.0000 -59.0328 44.1500 -3.3034 -3.2017 -7.1250 0.0000 -0.0000 13.1304 25.3560 -6.4032 -0.0000 0.0000 0.0000 83.2044 17.9183 82.0802 -98.7833 59.7065 -67.5991 0.0000 0.0000 8.6836 4.5337 -50.0536 -3.4787 7.1250 -0.0000 -0.0000 67.8957 -68.7345 -45.5489
-0.5055 17.5118 7.4814 -7.0102 -6.4532 5.6656 0.0000 0.0000 0.0000 -23.2331 -33.7401 25.2854 0.0476 -1.4083 -3.8729 -4.1661 41.4278 -44.1466 0.8538 5.8927 16.4735 0.0000 0.0000 0.0000 26.4473 20.8460 7.4680 -0.0090 -0.6139 1.6871 0.0977 -12.0645 -15.7820 -0.0135 0.7498 -2.0607 5.0836 3.0226 1.3629 0.4008 4.4115 -7.9739 -2.7913 1.8137 -8.8354 4.3771 0.9681 -14.3001 -0.6092 0.3701 33.3163 -0.9484 0.6445 13.6826 0.0000 -0.0000 0.0000 -85.8068 12.2852 54.0945 121.6032 -55.8674 -86.9894 -0.0000 0.0000 -61.2303 43.4681 -4.1164 -3.8926 -7.1250 0.0000 -0.0000 12.4833 24.3202 -6.3805 0.0000 -0.0000 0.0000 83.4670 17.5574 81.4304 -99.1091 59.6841 -67.8803 0.0000 0.0000 11.7738 3.3171 -49.0778 -2.5076 7.1250 -0.0000 -0.0000 64.7898 -68.7201 -42.8533
-0.5057 17.5124 7.4694 -7.1147 -6.6146 5.7344 0.0000 0.0000 0.0000 -22.9302 -33.6877 25.0265 0.0460 -1.3846 -3.8078 -4.1188 41.3623 -44.1921 0.8720 5.9539 16.6507 0.0000 0.0000 0.0000 26.5359 21.0550 7.3067 -0.0110 -0.6761 1.8579 0.0912 -12.0168 -15.8062 -0.0135 0.7494 -2.0596 5.1174 3.0957 1.4503 0.4503 4.5203 -7.9441 -2.7706 1.8667 -8.8472 4.3173 0.9534 -14.4378 -0.5237 0.3286 33.2958 -0.9101 0.6303 13.7026 0.0000 0.0000 0.0000 -85.8751 12.3628 53.5971 121.4553 -55.9095 -86.8670 -0.0000 0.0000 -63.8047 42.9166 -5.3928 -4.9942 -7.1250 0.0000 -0.0000 11.8562 22.6750 -6.5055 0.0000 0.0000 0.0000 83.9566 16.8049 80.2599 -100.1072 59.6105 -68.7416 0.0000 0.0000 16.9318 1.9045 -47.8739 -1.4127 7.1250 -0.0000 -0.0000 61.0266 -68.6173 -39.5965
-0.5079 17.5128 7.4461 -6.9936 -6.8827 5.7115 0.0000 0.0000 0.0000 -22.7610 -33.4952 24.6058 0.0425 -1.3313 -3.6609 -4.0528 41.2011 -44.1076 0.8930 6.0232 16.8518 0.0000 0.0000 0.0000 26.4241 21.5704 7.2504 -0.0140 -0.7637 2.0989 0.0946 -12.1549 -15.9685 -0.0108 0.6712 -1.8446 5.1624 3.1862 1.9365 0.2323 4.6645 -8.0143 -3.0730 1.9109 -9.1800 4.3967 0.9369 -14.5323 -0.3045 0.1978 33.2986 -0.8570 0.6133 13.7230 0.0000 0.0000 0.0000 -85.5396 12.4913 53.2216 121.3247 -55.9465 -86.7588 -0.0000 0.0000 -66.1884 42.9296 -7.2290 -6.6764 -7.1250 0.0000 -0.0000 11.5331 20.2421 -6.9714 0.0000 0.0000 0.0000 84.1084 16.8278 80.1959 -101.6722 59.4789 -70.0908 0.0000 0.0000 21.3549 -1.8661 -47.1851 1.3691 7.1250 -0.0000 -0.0000 56.4818 -69.5104 -36.9719
-0.5065 17.5130 7.4630 -7.2033 -6.7796 5.8461 0.0000 0.0000 0.0000 -22.4147 -33.3390 24.4341 0.0438 -1.3514 -3.7162 -4.1377 41.1557 -43.6675 0.8628 5.9231 16.5614 0.0000 0.0000 0.0000 26.6731 21.4677 7.3147 -0.0114 -0.6900 1.8962 0.0985 -12.1863 -15.9580 -0.0135 0.7507 -2.0631 5.2434 3.1787 1.7290 0.4028 4.6625 -8.0959 -2.9262 1.9114 -9.1573 4.2984 0.9110 -14.5281 -0.3244 0.1957 33.3956 -0.8485 0.5991 13.7636 -0.0000 -0.0000 0.0000 -85.7860 12.8241 52.8102 121.1890 -55.9847 -86.6464 -0.0000 0.0000 -67.3151 43.4992 -8.4570 -7.9447 -7.1250 0.0000 -0.0000 11.6956 18.5277 -7.5313 -0.0000 -0.0000 0.0000 83.6572 16.7081 80.0690 -103.5324 59.2966 -71.6917 0.0000 0.0000 26.0157 -4.3364 -45.8547 3.1146 7.1250 -0.0000 -0.0000 51.4273 -69.5756 -33.1273
-0.5046 17.5138 7.4688 -7.2914 -6.7384 5.8945 0.0000 0.0000 0.0000 -22.2154 -33.2252 24.2938 0.0441 -1.3555 -3.7277 -4.1650 41.0909 -43.4138 0.8366 5.8348 16.3057 0.0000 0.0000 0.0000 26.7862 21.4704 7.3702 -0.0103 -0.6548 1.7995 0.1065 -12.2563 -15.9489 -0.0135 0.7507 -2.0631 5.3618 3.1783 1.6610 0.4339 4.6686 -8.1238 -2.9555 1.9071 -9.1426 4.2922 0.9059 -14.4804 -0.3162 0.1899 33.3973 -0.8450 0.5970 13.7536 0.0000 0.0000 0.0000 -85.9103 12.9893 52.3437 120.9457 -56.0526 -86.4446 -0.0000 0.0000 -67.3230 44.2730 -8.1897 -7.9067 -7.1250 0.0000 -0.0000 12.2728 18.7534 -7.8574 0.0000 0.0000 0.0000 83.3063 16.7747 79.9848 -105.4966 59.0729 -73.3786 0.0000 0.0000 30.0350 -6.0829 -44.6416 4.2824 7.1250 -0.0000 -0.0000 47.2716 -69.3965 -29.8593
